<svg width="286" height="260" viewBox="0 0 286 260" fill="none" xmlns="http://www.w3.org/2000/svg">
<g filter="url(#filter0_d_146_2345)">
<path d="M254.478 32.1074C239.057 15.6121 218.187 6.35223 195.728 6.01028C176.109 5.6273 157.889 20.0436 142.997 32.1074C128.106 20.0573 109.574 5.55892 90.2939 6.01028C67.8348 6.35223 46.9789 15.6121 31.5442 32.1074C1.3542 64.3869 3.10691 117.142 35.4573 149.709L122.712 237.547C128.31 243.182 135.66 246 142.997 246C150.334 246 157.698 243.182 163.283 237.547L250.537 149.709C282.888 117.142 284.654 64.3869 254.45 32.1074H254.478Z" fill="url(#paint0_linear_146_2345)"/>
</g>
<defs>
<filter id="filter0_d_146_2345" x="0" y="0" width="286" height="260" filterUnits="userSpaceOnUse" color-interpolation-filters="sRGB">
<feFlood flood-opacity="0" result="BackgroundImageFix"/>
<feColorMatrix in="SourceAlpha" type="matrix" values="0 0 0 0 0 0 0 0 0 0 0 0 0 0 0 0 0 0 127 0" result="hardAlpha"/>
<feOffset dy="4"/>
<feGaussianBlur stdDeviation="5"/>
<feComposite in2="hardAlpha" operator="out"/>
<feColorMatrix type="matrix" values="0 0 0 0 0 0 0 0 0 0 0 0 0 0 0 0 0 0 0.25 0"/>
<feBlend mode="normal" in2="BackgroundImageFix" result="effect1_dropShadow_146_2345"/>
<feBlend mode="normal" in="SourceGraphic" in2="effect1_dropShadow_146_2345" result="shape"/>
</filter>
<linearGradient id="paint0_linear_146_2345" x1="143" y1="6" x2="143" y2="246" gradientUnits="userSpaceOnUse">
<stop stop-color="#FE6B91"/>
<stop offset="1" stop-color="#FF1D29"/>
</linearGradient>
</defs>
</svg>
